<svg height="512" viewBox="0 0 128 128" width="512" xmlns="http://www.w3.org/2000/svg"><g><path d="m98.285 90.674-21.885 29.353a15.465 15.465 0 0 1 -24.8 0l-21.885-29.353a36.537 36.537 0 0 1 -7.246-21.841 36.537 36.537 0 0 1 36.537-36.533h9.988a36.537 36.537 0 0 1 36.537 36.537 36.537 36.537 0 0 1 -7.246 21.837z" fill="#ef5350"/><path d="m45.438 34.909a36.421 36.421 0 0 1 13.568-2.609h9.988a36.412 36.412 0 0 1 13.567 2.613 28.956 28.956 0 0 0 12.464-23.813 28.907 28.907 0 0 0 -20.692 8.688 39.5 39.5 0 0 0 -10.333-18.041 39.491 39.491 0 0 0 -10.333 18.036 28.909 28.909 0 0 0 -20.692-8.683 28.958 28.958 0 0 0 12.463 23.809z" fill="#77bc4d"/><g fill="#e53935"><path d="m48.625 52a1.75 1.75 0 0 1 -1.75-1.75v-5.5a1.75 1.75 0 0 1 3.5 0v5.5a1.75 1.75 0 0 1 -1.75 1.75z"/><path d="m64 52a1.75 1.75 0 0 1 -1.75-1.75v-5.5a1.75 1.75 0 0 1 3.5 0v5.5a1.75 1.75 0 0 1 -1.75 1.75z"/><path d="m79.375 52a1.75 1.75 0 0 1 -1.75-1.75v-5.5a1.75 1.75 0 0 1 3.5 0v5.5a1.75 1.75 0 0 1 -1.75 1.75z"/><path d="m33.25 71.505a1.75 1.75 0 0 1 -1.75-1.75v-5.5a1.75 1.75 0 0 1 3.5 0v5.5a1.75 1.75 0 0 1 -1.75 1.75z"/><path d="m48.625 71.505a1.75 1.75 0 0 1 -1.75-1.75v-5.5a1.75 1.75 0 0 1 3.5 0v5.5a1.75 1.75 0 0 1 -1.75 1.75z"/><path d="m64 71.505a1.75 1.75 0 0 1 -1.75-1.75v-5.5a1.75 1.75 0 0 1 3.5 0v5.5a1.75 1.75 0 0 1 -1.75 1.75z"/><path d="m79.375 71.505a1.75 1.75 0 0 1 -1.75-1.75v-5.5a1.75 1.75 0 0 1 3.5 0v5.5a1.75 1.75 0 0 1 -1.75 1.75z"/><path d="m56.312 109.877a1.75 1.75 0 0 1 -1.75-1.75v-5.5a1.75 1.75 0 0 1 3.5 0v5.5a1.749 1.749 0 0 1 -1.75 1.75z"/><path d="m71.687 109.877a1.75 1.75 0 0 1 -1.75-1.75v-5.5a1.75 1.75 0 0 1 3.5 0v5.5a1.749 1.749 0 0 1 -1.75 1.75z"/><path d="m45.625 92.255a1.75 1.75 0 0 1 -1.75-1.75v-5.5a1.75 1.75 0 1 1 3.5 0v5.5a1.75 1.75 0 0 1 -1.75 1.75z"/><path d="m64 92.255a1.75 1.75 0 0 1 -1.75-1.75v-5.5a1.75 1.75 0 1 1 3.5 0v5.5a1.75 1.75 0 0 1 -1.75 1.75z"/><path d="m82.375 92.255a1.75 1.75 0 0 1 -1.75-1.75v-5.5a1.75 1.75 0 1 1 3.5 0v5.5a1.75 1.75 0 0 1 -1.75 1.75z"/><path d="m94.75 71.505a1.75 1.75 0 0 1 -1.75-1.75v-5.5a1.75 1.75 0 0 1 3.5 0v5.5a1.75 1.75 0 0 1 -1.75 1.75z"/></g></g></svg>