<?xml version="1.0" encoding="iso-8859-1"?>
<!-- Generator: Adobe Illustrator 19.0.0, SVG Export Plug-In . SVG Version: 6.00 Build 0)  -->
<svg version="1.1" id="Layer_1" xmlns="http://www.w3.org/2000/svg" xmlns:xlink="http://www.w3.org/1999/xlink" x="0px" y="0px"
	 viewBox="0 0 496 496" style="enable-background:new 0 0 496 496;" xml:space="preserve">
<g>
	<g>
		<g>
			<path d="M248,136c13.232,0,24-10.768,24-24c0-10.416-6.712-19.216-16-22.528V32h-16v57.472c-9.296,3.312-16,12.112-16,22.528
				C224,125.232,234.768,136,248,136z M248,104c4.416,0,8,3.584,8,8s-3.584,8-8,8s-8-3.584-8-8S243.584,104,248,104z"/>
			<path d="M448,248h-2.848l2.432-20.16c0.272-2.232,0.416-4.48,0.416-6.736V152c0-30.872-25.128-56-56-56h-33.28
				C350.92,41.816,304.312,0,248,0S145.08,41.816,137.28,96H104c-30.872,0-56,25.128-56,56v69.104c0,2.256,0.144,4.512,0.408,6.736
				l2.44,20.16H0v96h62.488l12.448,102.736C78.344,474.824,102.24,496,130.528,496h234.936c28.288,0,52.184-21.176,55.592-49.264
				l2.76-22.736H448c26.472,0,48-21.528,48-48v-80C496,269.528,474.472,248,448,248z M248,16c52.936,0,96,43.064,96,96
				c0,52.936-43.064,96-96,96c-52.936,0-96-43.064-96-96C152,59.064,195.064,16,248,16z M64,152c0-22.056,17.944-40,40-40h32
				c0,61.76,50.24,112,112,112s112-50.24,112-112h32c22.056,0,40,17.944,40,40v69.104c0,1.6-0.096,3.208-0.296,4.816L429.032,248
				H66.968l-2.68-22.096c-0.192-1.592-0.288-3.2-0.288-4.8V152z M405.168,444.816C402.744,464.872,385.672,480,365.472,480H130.528
				c-20.2,0-37.272-15.128-39.704-35.184L78.608,344h338.784L405.168,444.816z M448,408h-22.24l7.76-64H448
				c17.648,0,32,14.352,32,32S465.648,408,448,408z M480,340.248C471.496,332.64,460.28,328,448,328H16v-64h16v16h16v-16h16v16h16
				v-16h16v16h16v-16h16v16h16v-16h16v16h16v-16h16v16h16v-16h16v16h16v-16h16v16h16v-16h16v16h16v-16h16v16h16v-16h16v16h16v-16h16
				v16h16v-16h16v16h16v-16h16v24h16v-19.552c9.52,5.552,16,15.76,16,27.552V340.248z"/>
		</g>
	</g>
</g>
<g>
</g>
<g>
</g>
<g>
</g>
<g>
</g>
<g>
</g>
<g>
</g>
<g>
</g>
<g>
</g>
<g>
</g>
<g>
</g>
<g>
</g>
<g>
</g>
<g>
</g>
<g>
</g>
<g>
</g>
</svg>
