<svg id="Capa_1" enable-background="new 0 0 512 512" height="512" viewBox="0 0 512 512" width="512" xmlns="http://www.w3.org/2000/svg"><g><path d="m156.21 211.832c3.545-10.199 7.944-20.103 13.174-29.55 18.308-33.075 47.053-60.539 82.124-75.142 35.957-14.972 74.145-13.059 110.896-2.214 35.101 10.358 64.993 34.17 85.826 63.933 22.481 32.118 34.672 71.029 35.412 110.168 1.748 92.346-50.485 183.655-125.292 218.293-15.513 7.183-34.769 11.176-51.276 13.893-5.052.832-13.896.855-20.515.725-5.711-.113-11.36-1.272-16.748-3.437-6.244-2.509-14.527-6.047-19.008-8.836-14.643-9.11-31.473-20.509-43.819-33.409-59.541-62.208-80.614-168.561-50.774-254.424z" fill="#fe9738"/><path d="m358.35 497.319c-15.516 7.188-34.765 11.177-51.279 13.892-5.049.833-13.892.853-20.514.73-1.553-.031-3.105-.134-4.637-.329 1.265-.103 2.416-.236 3.424-.401 16.514-2.715 35.763-6.704 51.279-13.892 74.806-34.642 127.041-125.951 125.293-218.288-.74-39.146-12.935-78.055-35.413-110.167-20.832-29.768-50.724-53.582-85.829-63.937-14.673-4.329-29.573-7.239-44.472-8.205 22.056-1.522 44.38 1.769 66.199 8.205 35.105 10.354 64.996 34.169 85.829 63.937 22.478 32.112 34.673 71.022 35.413 110.167 1.748 92.337-50.488 183.646-125.293 218.288z" fill="#fe860a"/><path d="m330.875 106.759c8.38-4.459 15.943-10.566 22.325-17.55 9.971-10.91 16.635-24.49 18.248-39.192.178-1.626-.621-3.208-2.037-4.027-12.627-7.306-27.295-10.013-41.805-8.564-11.796 1.178-24.022 4.558-33.897 11.374-15.726 10.855-28.487 27.035-32.532 46.081-.611 2.877-2.414 10.491.958 12.327 3.633 1.978 7.453 3.61 11.393 4.873 18.473 5.921 40.147 3.832 57.347-5.322z" fill="#00c27a"/><path d="m371.453 50.018c-1.614 14.704-8.277 28.277-18.252 39.187-6.385 6.992-13.943 13.1-22.323 17.552-17.203 9.151-38.878 11.249-57.346 5.326-3.938-1.265-7.763-2.9-11.393-4.874-1.429-.781-2.262-2.324-2.129-3.938.103-1.275.206-2.602.247-2.91.021-.144.031-.278.062-.422 18.066 5.255 38.93 3.013 55.587-5.861 8.38-4.452 15.938-10.56 22.323-17.542 9.326-10.2 15.763-22.745 17.871-36.349 4.617 1.419 9.079 3.352 13.316 5.799 1.409.823 2.211 2.407 2.037 4.032z" fill="#08b865"/><path d="m237.557 117.659c-2.672-18.294-6.259-67.797-2.917-98.135 1.504-13.66 15.023-22.604 28.149-18.533.188.058.376.116.564.174 10.51 3.23 16.932 13.81 15.025 24.639-3.366 19.109-7.735 64.762-8.045 89.623-.113 9.046-7.425 16.341-16.472 16.341-8.188 0-15.121-6.008-16.304-14.109z" fill="#d77f4a"/><path d="m278.375 25.802c-3.362 19.115-7.733 64.76-8.041 89.623-.113 9.049-7.424 16.339-16.473 16.339-3.805 0-7.352-1.296-10.159-3.507 3.804-2.982 6.262-7.619 6.324-12.833.308-24.863 4.679-70.508 8.041-89.623 1.707-9.655-3.218-19.115-11.753-23.331 4.864-2.55 10.704-3.27 16.473-1.481.185.062.38.113.566.175 10.508 3.23 16.934 13.811 15.022 24.638z" fill="#c86d36"/><path d="m355.789 211.832c-3.545-10.199-7.944-20.103-13.174-29.55-18.308-33.075-47.053-60.539-82.124-75.142-35.957-14.972-74.145-13.059-110.896-2.214-35.101 10.358-64.993 34.17-85.826 63.933-22.481 32.118-34.672 71.029-35.412 110.168-1.748 92.346 50.485 183.655 125.292 218.293 15.513 7.183 34.769 11.176 51.276 13.893 5.052.832 13.896.855 20.515.725 5.711-.113 11.36-1.272 16.748-3.437 6.244-2.509 14.527-6.047 19.008-8.836 14.643-9.11 31.473-20.509 43.819-33.409 59.54-62.208 80.614-168.561 50.774-254.424z" fill="#fe9738"/><path d="m305.021 466.259c-12.349 12.899-29.181 24.298-43.822 33.404-4.483 2.792-12.769 6.324-19.014 8.836-5.384 2.162-11.038 3.322-16.742 3.443-6.625.13-15.461.1-20.515-.73-4.773-.791-9.767-1.671-14.841-2.722 4.603.25 10.007.24 14.41.15 5.714-.12 11.358-1.271 16.752-3.443 6.245-2.512 14.52-6.044 19.004-8.836 14.641-9.107 31.473-20.505 43.822-33.404 59.543-62.205 80.608-168.562 50.767-254.424-20.335-58.542-66.178-99.912-118.375-112.161 60.604 4.934 116.304 49.206 139.32 115.463 29.842 85.863 8.766 192.209-50.766 254.424z" fill="#fe860a"/></g></svg>