<?xml version="1.0" encoding="iso-8859-1"?>
<!-- Generator: Adobe Illustrator 19.0.0, SVG Export Plug-In . SVG Version: 6.00 Build 0)  -->
<svg version="1.1" id="Capa_1" xmlns="http://www.w3.org/2000/svg" xmlns:xlink="http://www.w3.org/1999/xlink" x="0px" y="0px"
	 viewBox="0 0 512.524 512.524" style="enable-background:new 0 0 512.524 512.524;" xml:space="preserve">
<path style="fill:#FFA000;" d="M317.048,46.003L317.048,46.003L317.048,46.003c-4.231-4.099-10.984-3.991-15.083,0.24
	c-3.999,4.128-4.008,10.682-0.021,14.821l0,0c9.323,9.472,8.64,44.693,7.957,81.963c-0.235,12.032-0.469,24.896-0.469,38.4
	c0,72.405-53.035,132.373-141.867,160.491c-109.995,34.731-131.712,65.131-133.803,68.48c-1.075,1.705-1.644,3.68-1.643,5.696
	v21.333c0,5.891,4.776,10.667,10.667,10.667l0,0c157.611-0.235,330.667-128.619,330.667-245.333
	C373.368,119.817,350.862,80.094,317.048,46.003z"/>
<path style="fill:#FFC107;" d="M480.035,181.427c-3.526-38.305-19.398-74.428-45.227-102.933
	c-14.272-16.81-33.038-29.205-54.101-35.733c-11.853-3.471-22.725-9.674-31.744-18.112c-3.599-3.623-9.261-4.186-13.504-1.344
	l-32,21.333c-4.903,3.266-6.229,9.888-2.963,14.791c0.386,0.58,0.829,1.121,1.32,1.614c30.997,31.125,50.219,65.728,50.219,141.717
	c0,104.533-164.8,223.787-309.333,224c-5.891,0-10.667,4.776-10.667,10.667v21.333c0.001,3.889,2.118,7.469,5.525,9.344
	c9.088,4.971,16.789,9.643,23.829,13.888c31.922,22.24,70.504,32.865,109.312,30.101c91.874-3.994,178.654-43.325,242.219-109.781
	c47.808-47.787,70.4-119.893,67.285-214.272C480.12,185.225,480.035,182.985,480.035,181.427z"/>
<path style="fill:#8D6E63;" d="M309.283,0.094c-6.894-0.614-13.715,1.799-18.688,6.613c-3.933,5.497-5.142,12.488-3.285,18.987
	c0.371,2.115,0.585,4.254,0.64,6.4c-1.745,15.928,9.753,30.255,25.682,32c2.1,0.23,4.219,0.23,6.318,0
	c15.928,1.745,30.255-9.753,32-25.682c0.23-2.1,0.23-4.219,0-6.318C351.95,14.153,333.198,0.094,309.283,0.094z"/>
<g>
</g>
<g>
</g>
<g>
</g>
<g>
</g>
<g>
</g>
<g>
</g>
<g>
</g>
<g>
</g>
<g>
</g>
<g>
</g>
<g>
</g>
<g>
</g>
<g>
</g>
<g>
</g>
<g>
</g>
</svg>
