<svg id="Capa_1" enable-background="new 0 0 500.138 500.138" height="512" viewBox="0 0 500.138 500.138" width="512" xmlns="http://www.w3.org/2000/svg"><g><path d="m374.45 247.913c49.283 6.643 94.839-27.625 102.007-76.955l6.797-46.775c.485-3.335-1.826-6.432-5.162-6.917l-41.586-6.043c-6.309-.917-12.559-1.158-18.681-.785l-75.99 6.911-93.832 84.795 86.473 32.495z" fill="#80d261"/><path d="m342.313 144.206h4.846c50.168 0 90.837-40.669 90.837-90.836v-47.267c0-3.37-2.732-6.103-6.103-6.103h-42.023c-50.167 0-90.836 40.669-90.836 90.836v24.625l-2.001 31.596z" fill="#97da7b"/><path d="m313.919 118.054c-.024.025-.048.05-.071.075l-16.063 17.053-.752 11.875 10.814-.681 16.884-17.924 113.264-116.957v-5.392c0-3.37-2.732-6.103-6.103-6.103h-3.606z" fill="#80d261"/><g><circle cx="345.226" cy="390.544" fill="#6c7fd8" r="102.854"/><path d="m380.319 293.832c-10.949-3.973-22.772-6.142-35.093-6.142-21.406 0-41.279 6.547-57.74 17.738v15.576c-1.448-4.108-3.059-8.14-4.848-12.077-24.481 18.802-40.266 48.363-40.266 81.617 0 25.831 9.524 49.436 25.25 67.5 17.807-24.614 28.321-54.835 28.321-87.469 0-.024 0-.048 0-.072-.002-4.107 2.52-7.811 6.396-9.169 33.73-11.812 61.617-36.185 77.98-67.502z" fill="#4f66d0"/><path d="m483.255 124.182c.485-3.335-1.826-6.432-5.162-6.917l-3.586-.521-.681.506c-.037.027-.073.056-.109.083l-101.988 78.686-51.324 33.331 14.073 5.289 3.523 1.17 42.154-27.375c.17-.11.336-.228.496-.352l101.83-78.564z" fill="#68ca44"/><circle cx="256.205" cy="229.253" fill="#6c7fd8" r="119.927"/><path d="m193.104 229.253c0-56.444 39.009-103.777 91.526-116.538-9.109-2.213-18.634-3.389-28.425-3.389-66.234 0-119.927 53.693-119.927 119.927s53.693 119.927 119.927 119.927c9.791 0 19.303-1.182 28.413-3.395-52.518-12.762-91.514-60.089-91.514-116.532z" fill="#4f66d0"/><path d="m256.205 349.179c12.999 0 25.511-2.076 37.233-5.902-12.867-69.479-73.91-122.265-147.058-122.265-3.306 0-6.583.12-9.836.332-.17 2.615-.266 5.25-.266 7.908 0 66.234 53.693 119.927 119.927 119.927z" fill="#4f66d0"/><circle cx="146.381" cy="370.575" fill="#6c7fd8" r="129.562"/><g fill="#4f66d0"><path d="m82.536 370.575c0-60.201 41.074-110.81 96.716-125.356-10.494-2.743-21.518-4.207-32.871-4.207-71.555 0-129.562 58.007-129.562 129.562s58.007 129.562 129.562 129.562c11.354 0 22.365-1.465 32.859-4.209-55.643-14.544-96.704-65.15-96.704-125.352z"/><path d="m118.561 348.411 6.161-4.621c4.855-3.641 11.687-2.97 15.74 1.547l7.296 8.13c.91 1.014 1.99 1.862 3.192 2.504l3.87 2.07c6.883 3.682 8.305 12.94 2.844 18.518l-1.839 1.878c-1.704 1.74-2.823 3.969-3.201 6.375l-.784 4.989c-1.292 8.221-10.505 12.508-17.626 8.203l-.697-.421c-2.47-1.493-5.405-2.022-8.241-1.484l-6.586 1.249c-7.642 1.449-14.547-4.818-13.843-12.564l.442-4.859c.267-2.935-.583-5.863-2.38-8.199l-.684-.89c-4.926-6.404-2.04-15.755 5.639-18.268l7.313-2.393c1.217-.401 2.36-.996 3.384-1.764z"/><path d="m332.266 376.1 4.889-3.666c3.852-2.889 9.273-2.356 12.489 1.227l5.789 6.451c.722.805 1.579 1.477 2.533 1.987l3.071 1.643c5.462 2.921 6.59 10.268 2.256 14.693l-1.459 1.49c-1.352 1.381-2.24 3.149-2.54 5.058l-.622 3.958c-1.025 6.523-8.336 9.925-13.986 6.508l-.553-.334c-1.96-1.185-4.288-1.604-6.539-1.178l-5.225.991c-6.064 1.15-11.543-3.823-10.984-9.969l.35-3.856c.212-2.329-.463-4.652-1.889-6.506l-.543-.706c-3.909-5.081-1.618-12.501 4.474-14.495l5.803-1.899c.967-.315 1.874-.787 2.686-1.397z"/><path d="m231.74 188.798 4.859-3.645c3.829-2.872 9.218-2.342 12.415 1.22l5.754 6.412c.718.8 1.57 1.468 2.517 1.975l3.053 1.633c5.429 2.904 6.55 10.206 2.243 14.605l-1.45 1.481c-1.344 1.373-2.227 3.13-2.525 5.028l-.618 3.935c-1.019 6.484-8.286 9.865-13.902 6.47l-.549-.332c-1.948-1.178-4.263-1.595-6.499-1.171l-5.194.985c-6.028 1.143-11.474-3.8-10.918-9.91l.348-3.833c.21-2.315-.46-4.625-1.877-6.467l-.54-.702c-3.885-5.051-1.609-12.426 4.448-14.408l5.768-1.888c.958-.313 1.859-.782 2.667-1.388z"/></g></g></g></svg>