<svg height="512" viewBox="0 0 512 512" width="512" xmlns="http://www.w3.org/2000/svg"><g id="Flat"><path d="m434.41 372.98c1.43 18.59 2.07 44.63-2.41 67.02l-16 48h-32l-16-24a161.017 161.017 0 0 1 -10.97-73.16c.25-3.17.61-6.33 1.06-9.49l1.91-21.35-24 64v64h-160v-64l-24-64 1.91 21.35c.45 3.16.81 6.32 1.06 9.49q.57 6.645.56 13.29a161.264 161.264 0 0 1 -11.53 59.87v24h-64l-5.19-67.48c-.21-2.71-.3-5.71-.3-8.92 0-11.9 1.28-26.53 2.64-38.72 1.53-13.85 3.18-24.55 3.18-24.55-.29-.65-.57-1.3-.85-1.97-19.72-47.52 12.62-100.59 63.75-106.27l.77-.09 40.94-9.1 31.06-6.9 2.87-45.88 1.13-18.12h72l1.13 18.12 2.87 45.88 31.06 6.9 40.94 9.1.77.09c51.13 5.68 83.47 58.75 63.75 106.27-.28.67-.56 1.32-.85 1.97 0 0 1.61 10.02 2.74 24.65z" fill="#fdc8a2"/><path d="m293.13 178.12-.78 1.3a42.392 42.392 0 0 1 -72.7 0l-.78-1.3 1.13-18.12h72z" fill="#fdbf92"/><g fill="#fdb683"><path d="m120.411 381.47c-.344 1.03-8.411 25.519-8.411 50.53h16c0-22.249 8.357-47.233 8.5-47.667z"/><path d="m203.834 221.145h15.999v73.377h-15.999z" transform="matrix(.168 -.986 .986 .168 -77.936 423.317)"/><path d="m263.524 250.166h71.952v16.001h-71.952z" transform="matrix(.987 -.162 .162 .987 -37.901 51.985)"/></g><path d="m434.41 372.98c-1.13-14.63-2.74-24.65-2.74-24.65l-71.67 11.67-1.91 21.35c-.45 3.16-.81 6.32-1.06 9.49a161.017 161.017 0 0 0 10.97 73.16l16 24h32l16-48c4.48-22.39 3.84-48.43 2.41-67.02z" fill="#fdbf92"/><path d="m431.67 348.33s1.61 10.02 2.74 24.65l-77.38 17.86c.25-3.17.61-6.33 1.06-9.49l1.91-21.35-24 64v64h-160v-64l-24-64 1.91 21.35c.45 3.16.81 6.32 1.06 9.49l-77.82-17.96c1.53-13.85 3.18-24.55 3.18-24.55-.29-.65-.57-1.3-.85-1.97-19.72-47.52 12.62-100.59 63.75-106.27l.77-.09 40.94-9.1 22.6 37.66a56.519 56.519 0 0 0 96.92 0l22.6-37.66 40.94 9.1.77.09c51.13 5.68 83.47 58.75 63.75 106.27-.28.67-.56 1.32-.85 1.97z" fill="#7eb357"/><path d="m207.356 396.743a89.377 89.377 0 0 1 -76.118-55.988l-2.232-5.541 14.841-5.979 2.232 5.54a73.465 73.465 0 0 0 62.565 46.025z" fill="#74a550"/><path d="m304.644 396.743-1.288-15.943a73.464 73.464 0 0 0 62.565-46.022l2.232-5.539 14.841 5.979-2.232 5.54a89.376 89.376 0 0 1 -76.118 55.985z" fill="#74a550"/><path d="m256 184a42.388 42.388 0 0 1 -36.348-20.58l-4.812-8.02a48 48 0 0 1 -6.84-24.7v-50.7a32 32 0 0 1 32-32h32a32 32 0 0 1 32 32v50.705a48 48 0 0 1 -6.84 24.7l-4.812 8.019a42.388 42.388 0 0 1 -36.348 20.576z" fill="#fdc8a2"/><path d="m208 88v-40h32z" fill="#804a32"/><path d="m304 88v-40h-32z" fill="#804a32"/><path d="m304 64h-84a20 20 0 0 1 -20-20v-20h80a24 24 0 0 1 24 24z" fill="#91563a"/><path d="m204 88h4a0 0 0 0 1 0 0v40a0 0 0 0 1 0 0h-4a20 20 0 0 1 -20-20 20 20 0 0 1 20-20z" fill="#fdb683"/><path d="m324 88h4a0 0 0 0 1 0 0v40a0 0 0 0 1 0 0h-4a20 20 0 0 1 -20-20 20 20 0 0 1 20-20z" fill="#fdb683" transform="matrix(-1 0 0 -1 632 216)"/><path d="m248 104h16v32h-16z" fill="#fdb683"/><path d="m360 304h64v32h-64z" fill="#dfdfdd"/><path d="m472 368h-32l-16-16v-64l16-16h32l16 16v64z" fill="#34507b"/><path d="m344 368h-32l-16-16v-64l16-16h32l16 16v64z" fill="#34507b"/><path d="m360 296v48l13.6 34-21.6 86 24 24h40l16-16-8-112v-64z" fill="#fdc8a2"/><path d="m357.953 436h88.091v16h-88.091z" fill="#fdb683" transform="matrix(.045 -.999 .999 .045 -59.798 825.422)"/></g></svg>