<?xml version="1.0" ?>
<svg style="enable-background:new 0 0 24 24;" version="1.1" viewBox="0 0 24 24" xml:space="preserve"
    xmlns="http://www.w3.org/2000/svg" xmlns:xlink="http://www.w3.org/1999/xlink"><g id="Guides"/>
    <g id="_x32_0" />
    <g id="_x31_9" />
    <g id="_x31_8" />
    <g id="_x31_7" />
    <g id="_x31_6" />
    <g id="_x31_5" />
    <g id="_x31_4" />
    <g id="_x31_3" />
    <g id="_x31_2" />
    <g id="_x31_1" />
    <g id="_x31_0" />
    <g id="_x30_9" />
    <g id="_x30_8" />
    <g id="_x30_7" />
    <g id="_x30_6" />
    <g id="_x30_5" />
    <g id="_x30_4" />
    <g id="_x30_3" />
    <g id="_x30_2" />
    <g id="_x30_1"><path d="M22.2070313,20.2929688l-5-5c-0.390625-0.390625-1.0234375-0.390625-1.4140625,0L14,17.0859375l-3.5-3.5V10h2v1   c0,0.5522461,0.4472656,1,1,1h7c0.3691406,0,0.7080078-0.203125,0.8818359-0.5283203s0.1542969-0.7197266-0.0498047-1.0263672   L19.7021484,8l1.6298828-2.4453125c0.2041016-0.3066406,0.2236328-0.7011719,0.0498047-1.0263672S20.8691406,4,20.5,4h-4V3   c0-0.5522461-0.4472656-1-1-1h-6c-0.5527344,0-1,0.4477539-1,1v6v4.5859375l-6.7070313,6.7070313   c-0.2861328,0.2861328-0.3720703,0.7158203-0.2167969,1.0898438C1.7304688,21.7563477,2.0957031,22,2.5,22h14h5   c0.4042969,0,0.7695313-0.2436523,0.9238281-0.6171875C22.5791016,21.0087891,22.4931641,20.5791016,22.2070313,20.2929688z    M10.5,4h4v1c0,0.5522461,0.4472656,1,1,1h3.1318359l-0.9638672,1.4453125c-0.2236328,0.3359375-0.2236328,0.7734375,0,1.109375   L18.6318359,10H14.5V9c0-0.5522461-0.4472656-1-1-1h-3V4z M4.9140625,20L9.5,15.4140625l3.7929688,3.7929688L14.0859375,20   H4.9140625z M16.9140625,20l-1.5-1.5L16.5,17.4140625L19.0859375,20H16.9140625z"/></g></svg>