<?xml version="1.0" ?>
<svg id="Layer_1" style="enable-background:new 0 0 512 512;" version="1.1" viewBox="0 0 512 512"
    xml:space="preserve" xmlns="http://www.w3.org/2000/svg"
    xmlns:xlink="http://www.w3.org/1999/xlink"><g id="XMLID_180_"><polygon id="XMLID_185_" points="458.5,173.6 458.5,257.4 53.5,257.4 53.5,173.6 6,173.6 6,364.2 53.5,364.2 53.5,304.8    458.5,304.8 458.5,364.2 506,364.2 506,173.6  "/><path
    d="M80.9,250.2h54c8.5,0,15.4-6.9,15.4-15.4v0c0-7.5-5.3-13.8-12.7-15.2l-54-9.7c-9.4-1.7-18.1,5.6-18.1,15.2   v9.7C65.5,243.3,72.4,250.2,80.9,250.2z"
    id="XMLID_184_" /><path
    d="M175,250.2h216.2h0.5v0c7.1-0.4,12.8-8.6,12.8-18.8v-37c0-10.4-6-18.8-13.4-18.8   c-7.3,0.1-13.2,8.7-13.2,19v18h-115V202c0-10.9-6.3-19.8-14-19.8H175c-9.4,0-17,10.7-17,24v6.5v2.9v10.7   C158,239.5,165.6,250.2,175,250.2z"
    id="XMLID_183_" /><ellipse cx="121.4" cy="194.3" id="XMLID_182_" rx="18.5" ry="22.4"
    transform="matrix(-0.1701 0.9854 -0.9854 -0.1701 333.5359 107.7647)" /><path
    d="M53.5,151.1c0-1.8-1.5-3.3-3.3-3.3H9.3c-1.8,0-3.3,1.5-3.3,3.3v17.3h47.5V151.1z"
    id="XMLID_181_" /></g></svg>