<?xml version="1.0"?>
<svg xmlns="http://www.w3.org/2000/svg" id="Outline" viewBox="0 0 512 512" width="512" height="512">
    <path
        d="M472,224V152a31.978,31.978,0,0,0-48.2-27.577A32,32,0,0,0,360,128v96H152V128a32,32,0,0,0-63.795-3.577A31.978,31.978,0,0,0,40,152v72a32,32,0,0,0,0,64v72a31.978,31.978,0,0,0,48.205,27.577A32,32,0,0,0,152,384V288H360v96a32,32,0,0,0,63.8,3.577A31.978,31.978,0,0,0,472,360V288a32,32,0,0,0,0-64ZM40,272a16,16,0,0,1,0-32ZM72,376a16.019,16.019,0,0,1-16-16V152a16,16,0,0,1,32,0V360A16.019,16.019,0,0,1,72,376Zm64,8a16,16,0,0,1-32,0V128a16,16,0,0,1,32,0Zm16-112V240H360v32ZM408,384a16,16,0,0,1-32,0V128a16,16,0,0,1,32,0Zm48-24a16,16,0,0,1-32,0V152a16,16,0,0,1,32,0Zm16-88V240a16,16,0,0,1,0,32Z" />
</svg>
